<svg width="2413" height="463" viewBox="0 0 2413 463" fill="none" xmlns="http://www.w3.org/2000/svg">
<path d="M979.789 69V394.625H1044.92H1240.32V329.5V264.375V199.25H1110.05V264.375H1175.18V329.5H1044.92V134.125H1240.32V69H1044.92H979.789Z" fill="white"/>
<path d="M719.263 199.25H654.132V69H589V394.625H654.132V264.375H719.263V394.625H784.395V69H719.263V199.25Z" fill="white"/>
<path d="M914.658 69H849.526V394.625H914.658V69Z" fill="white"/>
<path d="M1435.71 199.25H1370.58V69H1305.45V394.625H1370.58V264.375H1435.71V394.625H1500.84V69H1435.71V199.25Z" fill="white"/>
<path d="M2087.03 69H2021.89V394.625H2087.03V264.375H2152.16V394.625H2217.29V69H2152.16H2087.03ZM2152.16 199.25H2087.03V134.125H2152.16V199.25Z" fill="white"/>
<path d="M1826.5 69V394.625H1891.63H1956.76V329.5H1891.63V264.375H1956.76V199.25H1891.63V134.125H1956.76V69H1891.63H1826.5Z" fill="white"/>
<path d="M2347.55 329.5V69H2282.42V394.625H2347.55H2412.68V329.5H2347.55Z" fill="white"/>
<path d="M1696.24 69H1565.97V134.125H1668.56L1565.97 394.625H1631.11H1761.37V329.5H1658.79L1761.37 69H1696.24Z" fill="white"/>
<rect width="463" height="463" rx="231.5" fill="white"/>
<path d="M260.25 257.168H213.754V406.955L237.002 429.749L260.25 406.955V257.168Z" fill="black"/>
<path d="M436.27 234.375L303.425 104.125V211.581V257.169V364.625L436.27 234.375Z" fill="black"/>
<path d="M213.754 211.581H260.25V61.7938L237.002 39L213.754 61.7938V211.581Z" fill="black"/>
<path d="M170.579 257.169V211.581V104.125L37.7335 234.375L170.579 364.625V257.169Z" fill="black"/>
</svg>
