<svg width="299" height="99" viewBox="0 0 299 99" fill="none" xmlns="http://www.w3.org/2000/svg">
<path d="M81.967 1.64799V97H63.883L18.673 33.98V97H0.589028V1.64799H18.673L63.883 64.531V1.64799H81.967ZM106.874 49.735C106.874 39.597 108.792 30.7833 112.628 23.294C116.556 15.8047 122.173 10.0507 129.479 6.032C136.877 2.01333 145.6 0.00399941 155.646 0.00399941C161.4 0.00399941 166.561 0.597664 171.127 1.78499C175.694 2.97233 180.169 4.61633 184.553 6.71699V23.568H184.005C180.809 21.65 176.836 20.0517 172.086 18.773C167.428 17.403 162.405 16.718 157.016 16.718C136.284 16.718 125.917 27.6323 125.917 49.461C125.917 60.147 128.383 68.23 133.315 73.71C138.247 79.19 145.463 81.93 154.961 81.93C162.633 81.93 168.342 80.3317 172.086 77.135V62.75H154.002V47.68H190.17V86.725C182.864 91.2003 176.562 94.3057 171.264 96.041C165.967 97.7763 160.35 98.644 154.413 98.644C144.367 98.644 135.781 96.6347 128.657 92.616C121.533 88.5973 116.099 82.9347 112.354 75.628C108.701 68.23 106.874 59.599 106.874 49.735Z" fill="#FC6F2D"/>
<path d="M298.438 1.64799V97H280.354V55.078H235.144V97H217.06V1.64799H235.144V39.049H280.354V1.64799H298.438Z" fill="white"/>
</svg>
