<svg width="190" height="99" viewBox="0 0 190 99" fill="none" xmlns="http://www.w3.org/2000/svg">
<path d="M81.7537 1.64799V97H63.6696L18.4597 33.98V97H0.375649V1.64799H18.4597L63.6696 64.531V1.64799H81.7537ZM106.661 49.735C106.661 39.597 108.579 30.7833 112.415 23.294C116.342 15.8047 121.959 10.0507 129.266 6.032C136.664 2.01333 145.386 0.00399941 155.433 0.00399941C161.187 0.00399941 166.347 0.597664 170.914 1.78499C175.481 2.97233 179.956 4.61633 184.34 6.71699V23.568H183.792C180.595 21.65 176.622 20.0517 171.873 18.773C167.215 17.403 162.192 16.718 156.803 16.718C136.07 16.718 125.704 27.6323 125.704 49.461C125.704 60.147 128.17 68.23 133.102 73.71C138.034 79.19 145.249 81.93 154.748 81.93C162.42 81.93 168.128 80.3317 171.873 77.135V62.75H153.789V47.68H189.957V86.725C182.65 91.2003 176.348 94.3057 171.051 96.041C165.754 97.7763 160.137 98.644 154.2 98.644C144.153 98.644 135.568 96.6347 128.444 92.616C121.32 88.5973 115.886 82.9347 112.141 75.628C108.488 68.23 106.661 59.599 106.661 49.735Z" fill="black"/>
</svg>
