<svg width="611" height="364" viewBox="0 0 611 364" fill="none" xmlns="http://www.w3.org/2000/svg">
<rect width="611" height="364" fill="white"/>
<path d="M257 33H576V328H257V33Z" stroke="black" stroke-width="10"/>
<rect x="75" y="104" width="403" height="150" fill="white"/>
<path d="M115.555 133.648V229H97.4709L52.2609 165.98V229H34.1769V133.648H52.2609L97.4709 196.531V133.648H115.555ZM140.462 181.735C140.462 171.597 142.38 162.783 146.216 155.294C150.143 147.805 155.76 142.051 163.067 138.032C170.465 134.013 179.187 132.004 189.234 132.004C194.988 132.004 200.148 132.598 204.715 133.785C209.282 134.972 213.757 136.616 218.141 138.717V155.568H217.593C214.396 153.65 210.423 152.052 205.674 150.773C201.016 149.403 195.993 148.718 190.604 148.718C169.871 148.718 159.505 159.632 159.505 181.461C159.505 192.147 161.971 200.23 166.903 205.71C171.835 211.19 179.05 213.93 188.549 213.93C196.221 213.93 201.929 212.332 205.674 209.135V194.75H187.59V179.68H223.758V218.725C216.451 223.2 210.149 226.306 204.852 228.041C199.555 229.776 193.938 230.644 188.001 230.644C177.954 230.644 169.369 228.635 162.245 224.616C155.121 220.597 149.687 214.935 145.942 207.628C142.289 200.23 140.462 191.599 140.462 181.735ZM332.026 133.648V229H313.942V187.078H268.732V229H250.648V133.648H268.732V171.049H313.942V133.648H332.026ZM399.54 230.644C386.845 230.644 376.889 226.991 369.674 219.684C362.459 212.377 358.851 202.331 358.851 189.544V133.648H376.935V189.133C376.935 197.901 378.899 204.386 382.826 208.587C386.753 212.697 392.325 214.752 399.54 214.752C406.847 214.752 412.418 212.651 416.254 208.45C420.181 204.157 422.145 197.718 422.145 189.133V133.648H440.229V189.544C440.229 202.331 436.621 212.377 429.406 219.684C422.191 226.991 412.235 230.644 399.54 230.644ZM524.11 179.406C529.042 181.507 532.787 184.475 535.344 188.311C537.902 192.147 539.18 196.805 539.18 202.285C539.18 210.962 536.029 217.583 529.727 222.15C523.425 226.717 514.292 229 502.327 229H467.118V133.648H503.971C514.292 133.648 522.238 135.84 527.809 140.224C533.381 144.517 536.166 150.682 536.166 158.719C536.166 168.309 532.148 175.205 524.11 179.406ZM485.202 149.54V172.282H502.327C507.259 172.282 510.958 171.277 513.424 169.268C515.89 167.259 517.123 164.336 517.123 160.5C517.123 156.299 516.027 153.422 513.835 151.869C511.735 150.316 507.944 149.54 502.464 149.54H485.202ZM502.327 212.971C508.812 212.971 513.379 212.058 516.027 210.231C518.767 208.313 520.137 205.071 520.137 200.504C520.137 196.211 518.676 193.06 515.753 191.051C512.922 189.042 508.492 188.037 502.464 188.037H485.202V212.971H502.327Z" fill="black"/>
<path d="M47.575 242.296V259H45.463L36.487 246.112V259H34.375V242.296H36.487L45.463 255.184V242.296H47.575ZM63.3383 253.432H54.4583C54.5863 254.664 54.9943 255.648 55.6823 256.384C56.3863 257.104 57.3383 257.464 58.5383 257.464C59.2583 257.464 59.9543 257.32 60.6263 257.032C61.3143 256.728 62.0103 256.288 62.7143 255.712H62.8103V257.824C62.1063 258.336 61.4103 258.712 60.7223 258.952C60.0343 259.176 59.2983 259.288 58.5143 259.288C57.2343 259.288 56.1223 259.008 55.1783 258.448C54.2343 257.888 53.5063 257.112 52.9943 256.12C52.4983 255.112 52.2503 253.96 52.2503 252.664C52.2503 251.432 52.4743 250.328 52.9223 249.352C53.3863 248.36 54.0423 247.584 54.8903 247.024C55.7383 246.464 56.7303 246.184 57.8663 246.184C59.0183 246.184 60.0023 246.472 60.8183 247.048C61.6503 247.608 62.2743 248.384 62.6903 249.376C63.1223 250.368 63.3383 251.488 63.3383 252.736V253.432ZM57.8903 247.936C56.8983 247.936 56.1063 248.296 55.5143 249.016C54.9223 249.736 54.5703 250.664 54.4583 251.8H61.1543C61.0423 250.632 60.7143 249.696 60.1703 248.992C59.6423 248.288 58.8823 247.936 57.8903 247.936ZM75.4729 259L71.5129 253.816L67.6729 259H65.3449L70.3849 252.376L65.8729 246.472H68.4169L71.8489 250.96L75.1609 246.472H77.4889L72.9769 252.424L78.0169 259H75.4729ZM83.5026 246.472H86.9586V248.296H83.5026V255.472C83.5026 256.064 83.6306 256.544 83.8866 256.912C84.1586 257.264 84.5506 257.44 85.0626 257.44C85.4146 257.44 85.7266 257.408 85.9986 257.344C86.2866 257.264 86.6066 257.144 86.9586 256.984V258.856C86.5906 259.032 86.2386 259.144 85.9026 259.192C85.5666 259.256 85.1586 259.288 84.6786 259.288C83.6546 259.288 82.8466 258.96 82.2546 258.304C81.6786 257.648 81.3906 256.776 81.3906 255.688V248.296H78.9906V246.472H81.3906V243.112L83.5026 242.008V246.472ZM97.1506 250.672C97.1506 248.944 97.4546 247.432 98.0626 246.136C98.6706 244.824 99.5666 243.808 100.751 243.088C101.951 242.368 103.391 242.008 105.071 242.008C106.031 242.008 106.935 242.128 107.783 242.368C108.631 242.592 109.383 242.904 110.039 243.304L110.015 245.68H109.919C109.295 245.136 108.551 244.712 107.687 244.408C106.839 244.088 105.943 243.928 104.999 243.928C103.127 243.928 101.727 244.536 100.799 245.752C99.8866 246.952 99.4306 248.592 99.4306 250.672C99.4306 252.736 99.8786 254.368 100.775 255.568C101.687 256.768 103.055 257.368 104.879 257.368C105.631 257.368 106.319 257.272 106.943 257.08C107.567 256.872 108.111 256.584 108.575 256.216V252.64H105.047V250.792H110.687V257.32C109.695 257.976 108.751 258.472 107.855 258.808C106.975 259.128 105.975 259.288 104.855 259.288C103.223 259.288 101.823 258.928 100.655 258.208C99.5026 257.488 98.6306 256.48 98.0386 255.184C97.4466 253.888 97.1506 252.384 97.1506 250.672ZM126.221 253.432H117.341C117.469 254.664 117.877 255.648 118.565 256.384C119.269 257.104 120.221 257.464 121.421 257.464C122.141 257.464 122.837 257.32 123.509 257.032C124.197 256.728 124.893 256.288 125.597 255.712H125.693V257.824C124.989 258.336 124.293 258.712 123.605 258.952C122.917 259.176 122.181 259.288 121.397 259.288C120.117 259.288 119.005 259.008 118.061 258.448C117.117 257.888 116.389 257.112 115.877 256.12C115.381 255.112 115.133 253.96 115.133 252.664C115.133 251.432 115.357 250.328 115.805 249.352C116.269 248.36 116.925 247.584 117.773 247.024C118.621 246.464 119.613 246.184 120.749 246.184C121.901 246.184 122.885 246.472 123.701 247.048C124.533 247.608 125.157 248.384 125.573 249.376C126.005 250.368 126.221 251.488 126.221 252.736V253.432ZM120.773 247.936C119.781 247.936 118.989 248.296 118.397 249.016C117.805 249.736 117.453 250.664 117.341 251.8H124.037C123.925 250.632 123.597 249.696 123.053 248.992C122.525 248.288 121.765 247.936 120.773 247.936ZM136.94 246.184C138.124 246.184 139.02 246.552 139.628 247.288C140.236 248.008 140.54 249.016 140.54 250.312V259H138.428V250.6C138.428 249.8 138.26 249.184 137.924 248.752C137.588 248.304 137.076 248.08 136.388 248.08C135.604 248.08 134.94 248.208 134.396 248.464C133.868 248.72 133.276 249.136 132.62 249.712V259H130.508V249.256L129.98 246.472H132.092L132.428 248.224C133.18 247.504 133.876 246.984 134.516 246.664C135.172 246.344 135.98 246.184 136.94 246.184ZM155.963 253.432H147.083C147.211 254.664 147.619 255.648 148.307 256.384C149.011 257.104 149.963 257.464 151.163 257.464C151.883 257.464 152.579 257.32 153.251 257.032C153.939 256.728 154.635 256.288 155.339 255.712H155.435V257.824C154.731 258.336 154.035 258.712 153.347 258.952C152.659 259.176 151.923 259.288 151.139 259.288C149.859 259.288 148.747 259.008 147.803 258.448C146.859 257.888 146.131 257.112 145.619 256.12C145.123 255.112 144.875 253.96 144.875 252.664C144.875 251.432 145.099 250.328 145.547 249.352C146.011 248.36 146.667 247.584 147.515 247.024C148.363 246.464 149.355 246.184 150.491 246.184C151.643 246.184 152.627 246.472 153.443 247.048C154.275 247.608 154.899 248.384 155.315 249.376C155.747 250.368 155.963 251.488 155.963 252.736V253.432ZM150.515 247.936C149.523 247.936 148.731 248.296 148.139 249.016C147.547 249.736 147.195 250.664 147.083 251.8H153.779C153.667 250.632 153.339 249.696 152.795 248.992C152.267 248.288 151.507 247.936 150.515 247.936ZM166.274 246.184V248.512H165.914C165.162 248.512 164.482 248.648 163.874 248.92C163.282 249.192 162.786 249.584 162.386 250.096V259H160.274V249.256L159.746 246.472H161.858L162.29 248.704C162.946 247.744 163.498 247.088 163.946 246.736C164.41 246.368 164.938 246.184 165.53 246.184H166.274ZM177.864 259L177.528 257.2C176.904 257.888 176.224 258.408 175.488 258.76C174.768 259.112 173.952 259.288 173.04 259.288C171.904 259.288 170.984 258.968 170.28 258.328C169.576 257.672 169.224 256.808 169.224 255.736C169.224 254.344 169.784 253.32 170.904 252.664C172.024 252.008 173.464 251.68 175.224 251.68C175.864 251.68 176.568 251.72 177.336 251.8V250.936C177.336 250.072 177.096 249.384 176.616 248.872C176.152 248.344 175.544 248.08 174.792 248.08C173.896 248.08 173.08 248.2 172.344 248.44C171.624 248.68 170.88 249.056 170.112 249.568V247.528C170.864 247.032 171.632 246.688 172.416 246.496C173.2 246.288 174.096 246.184 175.104 246.184C176.384 246.184 177.424 246.592 178.224 247.408C179.04 248.224 179.448 249.304 179.448 250.648V256.216L179.976 259H177.864ZM173.472 257.512C174.24 257.512 174.928 257.352 175.536 257.032C176.144 256.712 176.744 256.248 177.336 255.64V253.288H175.128C172.712 253.288 171.504 254.064 171.504 255.616C171.504 256.192 171.688 256.656 172.056 257.008C172.424 257.344 172.896 257.512 173.472 257.512ZM186.698 246.472H190.154V248.296H186.698V255.472C186.698 256.064 186.826 256.544 187.082 256.912C187.354 257.264 187.746 257.44 188.258 257.44C188.61 257.44 188.922 257.408 189.194 257.344C189.482 257.264 189.802 257.144 190.154 256.984V258.856C189.786 259.032 189.434 259.144 189.098 259.192C188.762 259.256 188.354 259.288 187.874 259.288C186.85 259.288 186.042 258.96 185.45 258.304C184.874 257.648 184.586 256.776 184.586 255.688V248.296H182.186V246.472H184.586V243.112L186.698 242.008V246.472ZM194.555 243.64C194.107 243.64 193.739 243.496 193.451 243.208C193.179 242.92 193.043 242.552 193.043 242.104C193.043 241.656 193.179 241.288 193.451 241C193.739 240.712 194.107 240.568 194.555 240.568C195.003 240.568 195.363 240.712 195.635 241C195.923 241.288 196.067 241.656 196.067 242.104C196.067 242.552 195.923 242.92 195.635 243.208C195.363 243.496 195.003 243.64 194.555 243.64ZM195.611 246.472V259H193.499V246.472H195.611ZM205.602 259.288C203.778 259.288 202.354 258.696 201.33 257.512C200.306 256.312 199.794 254.72 199.794 252.736C199.794 250.752 200.306 249.168 201.33 247.984C202.354 246.784 203.778 246.184 205.602 246.184C207.426 246.184 208.85 246.784 209.874 247.984C210.898 249.168 211.41 250.752 211.41 252.736C211.41 254.72 210.898 256.312 209.874 257.512C208.85 258.696 207.426 259.288 205.602 259.288ZM205.602 257.464C206.77 257.464 207.65 257.032 208.242 256.168C208.834 255.304 209.13 254.16 209.13 252.736C209.13 251.312 208.834 250.168 208.242 249.304C207.65 248.44 206.77 248.008 205.602 248.008C204.434 248.008 203.554 248.44 202.962 249.304C202.386 250.168 202.098 251.312 202.098 252.736C202.098 254.16 202.386 255.304 202.962 256.168C203.554 257.032 204.434 257.464 205.602 257.464ZM222.369 246.184C223.553 246.184 224.449 246.552 225.057 247.288C225.665 248.008 225.969 249.016 225.969 250.312V259H223.857V250.6C223.857 249.8 223.689 249.184 223.353 248.752C223.017 248.304 222.505 248.08 221.817 248.08C221.033 248.08 220.369 248.208 219.825 248.464C219.297 248.72 218.705 249.136 218.049 249.712V259H215.937V249.256L215.409 246.472H217.521L217.857 248.224C218.609 247.504 219.305 246.984 219.945 246.664C220.601 246.344 221.409 246.184 222.369 246.184Z" fill="black"/>
</svg>
